<?xml version="1.0" encoding="utf-8"?>
<!-- Generator: Adobe Illustrator 24.0.0, SVG Export Plug-In . SVG Version: 6.00 Build 0)  -->
<svg version="1.1" id="Layer_1" xmlns="http://www.w3.org/2000/svg" xmlns:xlink="http://www.w3.org/1999/xlink" x="0px" y="0px"
	 viewBox="0 0 500 500" style="enable-background:new 0 0 500 500;" xml:space="preserve">
<style type="text/css">
	.st0{fill:#FFFFFF;}
	.st1{fill:#366FCC;}
	.st2{fill:#FFFFFF;stroke:#000000;stroke-width:0.5;stroke-miterlimit:10;}
	.st3{font-family:'BebasNeue';}
	.st4{font-size:92.3381px;}
	.st5{font-size:26.3927px;}
	.st6{fill:#FEFEFE;}
	.st7{fill:#333887;}
	.st8{fill:#C72A34;}
</style>
<g id="BACKGROUND">
	<rect y="0" class="st0" width="500" height="500"/>
</g>
<g id="OBJECTS">
	<g>
		<g>
			<g>
				<path class="st1" d="M91.9,232.6c12.6-8.6,21-22.4,21-36.9l0,0c0-21.7-19.1-36.6-42.7-33.2l-35.6,5.1l-7.1,1l-6.5,0.9
					c-6.3,0.5-11.2,5.6-11.2,12.6l10.6,11.3v111.1c0,7.6,6.8,13.5,14.3,12.4l0,0l42.7-6.1c23.6-3.4,42.7-23.7,42.7-45.4l0,0
					C120.1,248.5,108.3,235.8,91.9,232.6z"/>
				<path class="st2" d="M76.7,275.5c12.6-3.1,21-13.1,21-27.5l0,0c0-21.7-19.1-45-42.7-52.1l-35.6-10.7l-0.1,0
					c-8.8-2.6-7.6-14.6,1.6-15.5c0.1,0,0.1,0,0.2,0v-0.1h-3.7c-6.8,0-12.3,5.1-12.3,11.3v139.2c0,6,4,11.4,9.8,13.1l4.6,1.4
					l42.7,12.8c23.6,7.1,42.7-4.8,42.7-26.5l0,0C104.8,303.9,93.1,285.9,76.7,275.5z"/>
			</g>
			<g>
				<g>
					<text transform="matrix(1 0 0 1 130.8661 229.026)" class="st1 st3 st4">Econet</text>
				</g>
				<text transform="matrix(1 0 0 1 130.8661 342.8199)" class="st1 st3 st5">Stay smart, stay ahead of the curriculum</text>
				<g>
					<text transform="matrix(1 0 0 1 130.8661 305.0699)" class="st1 st3 st4">Classrooms</text>
				</g>
			</g>
		</g>
	</g>
	<g>
		<g>
			<path class="st6" d="M50.1,268.5c-13.3,0-26.6,0-40,0c-0.3,0-0.3-0.1-0.3-0.3c0-15.1,0-30.1,0-45.2c0-0.3,0.1-0.3,0.3-0.3
				c26.7,0,53.3,0,80,0c0.3,0,0.3,0.1,0.3,0.3c0,15.1,0,30.1,0,45.2c0,0.3-0.1,0.3-0.3,0.3C76.7,268.5,63.4,268.5,50.1,268.5z
				 M56,243.3c-0.1-0.2-0.1-0.2-0.2-0.3c-0.8-1.3-1.6-2.5-2.4-3.8c-0.2-0.3-0.3-0.6-0.5-0.8c-0.9-0.4-1.7-0.7-2.6-1.1
				c-0.2-0.1-0.2-0.1-0.3,0.1c-0.8,2-1.6,4-2.4,6c-0.1,0.2,0,0.3,0.2,0.4c0.8,0.3,1.6,0.6,2.5,1c0.2,0.1,0.4,0.1,0.5-0.2
				c0-0.2,0.1-0.4,0.2-0.6c0.3-0.7,0.6-1.4,0.9-2.2c0,0.2,0.2,0.2,0.3,0.3c0.9,1.5,1.8,2.9,2.8,4.4c0,0.1,0.1,0.1,0.2,0.1
				c0.9,0.4,1.8,0.7,2.6,1.1c0.1,0.1,0.2,0,0.2-0.1c0.2-0.5,0.4-1,0.6-1.5c0.6-1.5,1.2-3,1.8-4.5c0.1-0.2,0.1-0.3-0.1-0.3
				c-0.9-0.4-1.8-0.7-2.7-1c-0.2-0.1-0.2-0.1-0.3,0.1c-0.1,0.4-0.3,0.8-0.4,1.2C56.5,242.1,56.2,242.6,56,243.3z M44.1,241.8
				c1.4,0,2.3-0.4,3-1.4c0.7-1.1,0.7-2.1,0-3.2c-0.5-0.9-1.3-1.4-2.1-1.9c-1.6-0.9-3.3-1.6-5.3-1.8c-0.8-0.1-1.6,0-2.4,0.5
				c-1.5,0.9-2,3.3-0.4,4.8c0.9,0.9,2,1.5,3.2,2C41.4,241.4,42.7,241.8,44.1,241.8z M83.3,250.8c0.6,0.7,1.2,1.3,1.6,2.2
				c0.4,1,0.1,1.8-0.8,2.2c-0.7,0.3-1.3,0.5-2.1,0.6c-1.3,0.1-2.6,0.1-3.8,0c-2.8-0.3-5.6-0.9-8.3-1.6c-2.6-0.7-5.1-1.5-7.6-2.5
				c-3.1-1.2-6.2-2.5-9.2-4.1c-2-1.1-4-2.2-5.8-3.5c-0.2-0.1-0.3-0.3-0.7-0.3c0.5,0.4,0.8,0.7,1.2,1c1.3,0.9,2.5,1.7,3.8,2.5
				c1.4,0.8,2.9,1.6,4.4,2.4c1.5,0.7,3,1.4,4.5,2.1c2.2,0.9,4.4,1.8,6.6,2.6c1.9,0.7,3.9,1.3,5.8,1.9c2.1,0.6,4.2,1.1,6.3,1.4
				c1.9,0.3,3.8,0.5,5.7,0.4c0.6,0,1.2-0.2,1.8-0.5c0.9-0.5,1.2-1,1-1.8c-0.1-0.5-0.4-1-0.7-1.4c-0.9-1.2-2.1-2.2-3.3-3.1
				C83.7,250.9,83.6,250.7,83.3,250.8z M70.5,247.2c0.2,0,0.2-0.1,0.3-0.3c0.1-0.3,0.2-0.6,0.4-0.9c0.1-0.3,0-0.4-0.2-0.4
				c-2.7-1.1-5.4-2.1-8.1-3.2c-0.5-0.2-0.5-0.2-0.8,0.3c-0.8,1.9-1.5,3.8-2.3,5.6c-0.1,0.2-0.1,0.3,0.2,0.4c2.8,1.1,5.6,2.2,8.5,3.4
				c0.2,0.1,0.3,0.1,0.4-0.2c0.1-0.3,0.2-0.6,0.3-0.9s0.1-0.4-0.2-0.5c-1.6-0.6-3.1-1.2-4.7-1.8c-0.7-0.3-0.7-0.3-0.4-1
				c0.1-0.2,0.2-0.2,0.3-0.1c1.4,0.6,2.9,1.1,4.3,1.7c0.2,0.1,0.3,0,0.4-0.2c0.1-0.3,0.3-0.7,0.4-1c0.1-0.2,0-0.2-0.1-0.3
				c-1.3-0.5-2.7-1.1-4-1.6c-0.6-0.2-0.6-0.3-0.4-0.9c0.1-0.2,0.2-0.2,0.4-0.2c1.3,0.5,2.7,1.1,4,1.6
				C69.7,246.8,70.1,247,70.5,247.2z M25.5,227.6c0-0.2-0.2-0.2-0.3-0.2c-1.5-0.6-3-1.2-4.5-1.8c-1.3-0.5-2.5-1-3.8-1.5
				c-0.2-0.1-0.4,0-0.4,0.2c-0.1,0.3-0.2,0.5-0.3,0.8c-0.7,1.7-1.3,3.4-2,5.1c-0.1,0.3,0,0.3,0.2,0.4c1,0.4,2,0.8,3,1.2
				c1.9,0.7,3.7,1.5,5.6,2.2c0.1,0.1,0.2,0.1,0.3-0.1c0.1-0.3,0.3-0.7,0.4-1c0.2-0.3,0-0.4-0.3-0.6c-1.7-0.6-3.4-1.3-5.1-2
				c-0.2-0.1-0.2-0.3-0.1-0.4c0.2-0.2,0-0.6,0.5-0.6c0,0,0,0,0.1,0c0.8,0.3,1.5,0.6,2.3,0.9c0.7,0.3,1.4,0.5,2,0.8
				c0.1,0,0.2,0.1,0.3-0.1c0.1-0.4,0.3-0.8,0.5-1.1c0.1-0.2,0-0.2-0.1-0.3c-1.3-0.5-2.6-1-3.9-1.5c-0.7-0.3-0.7-0.3-0.4-0.9
				c0.1-0.2,0.2-0.2,0.3-0.1c0.4,0.2,0.8,0.3,1.2,0.5c1.3,0.5,2.6,1.1,4,1.6c0.1,0,0.2,0.1,0.2,0C25.1,228.5,25.3,228,25.5,227.6z
				 M32.2,237.1c0.2,0,0.5,0,0.8-0.1c0.8-0.1,1.3-0.5,1.7-1.2c0.1-0.1,0.1-0.2-0.1-0.3c-0.9-0.3-1.8-0.7-2.6-1.1
				c-0.1-0.1-0.2,0-0.3,0.1c-0.1,0.3-0.4,0.4-0.7,0.5c-0.9,0.1-1.8-0.2-2.5-0.8c-0.6-0.5-0.7-1.1-0.4-1.8c0.1-0.2,0.2-0.4,0.2-0.5
				c0.2-0.6,0.8-1,1.5-1c0.8,0.1,1.5,0.3,2,0.8c0.3,0.2,0.5,0.5,0.4,0.9c-0.1,0.4,0.1,0.6,0.5,0.7c0.8,0.3,1.6,0.6,2.4,0.9
				c0.1,0.1,0.2,0.1,0.3-0.1c0.2-0.6,0.2-1.1-0.1-1.6c-0.4-0.9-1.1-1.5-1.8-1.9c-1.5-0.9-3.2-1.6-5-1.8c-1.1-0.1-2.1,0-2.9,0.9
				c-1.4,1.5-1.3,3.5,0.3,4.9c1,0.8,2.1,1.4,3.2,1.8C30,236.8,31,237.1,32.2,237.1z M75.4,249.3c0,0.1-0.1,0.2-0.1,0.3
				c-0.6,1.4-1.1,2.8-1.7,4.1c-0.1,0.2-0.1,0.3,0.2,0.4c0.9,0.4,1.9,0.7,2.8,1.1c0.2,0.1,0.3,0,0.3-0.1c0.6-1.4,1.1-2.9,1.7-4.3
				c0.1-0.2,0.1-0.2,0.3-0.1c1,0.4,1.9,0.8,2.9,1.2c0.1,0.1,0.2,0.1,0.3-0.1c0.1-0.3,0.2-0.5,0.3-0.7c0.1-0.3,0.3-0.5,0.2-0.7
				c-0.1-0.2-0.5-0.2-0.7-0.3c-2.2-0.9-4.4-1.8-6.6-2.6c-0.8-0.3-1.6-0.6-2.3-0.9c-0.1,0-0.3-0.2-0.3,0.1c-0.1,0.4-0.3,0.8-0.5,1.2
				c-0.1,0.3,0,0.3,0.2,0.4c1,0.4,1.9,0.8,2.9,1.2C75.3,249.2,75.4,249.2,75.4,249.3z M58.4,255.9C58.4,255.8,58.3,255.8,58.4,255.9
				c-0.1-0.6,0-1.2,0-1.8c0-0.4-0.3-0.5-0.5-0.6s-0.4,0-0.5,0.2c-0.3,0.4-0.6,0.8-0.9,1.1c0,0.1-0.1,0.2-0.2,0.1
				c-0.1,0-0.1-0.1-0.1-0.2c0-0.4,0-0.9,0-1.3c0-0.7,0-0.6-0.5-0.8c-0.4-0.1-0.4-0.1-0.4,0.3c0,0.9,0,1.9,0,2.8
				c0,0.4,0.3,0.5,0.5,0.6c0.3,0.1,0.5,0,0.6-0.2c0.3-0.4,0.6-0.7,0.9-1c0-0.1,0.1-0.2,0.2-0.2c0.1,0.1,0.1,0.1,0.1,0.3
				c0,0.5,0,1-0.1,1.5c0,0.2,0.1,0.4,0.3,0.4c0.2,0.1,0.5,0.3,0.7,0.1c0.8-0.8,1.5-1.6,2.2-2.3c0,0,0.1-0.1,0-0.2
				c-0.2-0.3-0.9-0.3-1.1-0.1C59.2,255,58.8,255.4,58.4,255.9z M67,258.7c0-0.2,0-0.3-0.1-0.5c-0.3-0.6-0.8-0.8-1.4-0.9
				c-0.6-0.1-1.1,0.1-1.4,0.7c-0.3,0.5-0.2,1.1,0.3,1.5c0.2,0.2,0.5,0.4,0.8,0.4c0.3,0.1,0.7,0.2,1,0.1c0.2,0,0.4-0.1,0.4-0.3
				c0-0.2-0.2-0.2-0.3-0.3c-0.1-0.1-0.3-0.1-0.5,0c-0.3,0.1-0.6,0-0.9-0.3c-0.2-0.1-0.2-0.3-0.1-0.4c0.1-0.2,0.2,0,0.3,0
				c0.4,0.1,0.8,0.3,1.2,0.5c0.4,0.2,0.5,0.1,0.6-0.3C66.9,259,67,258.9,67,258.7z M71.6,260.6c0.1-0.6-0.6-1.2-1.2-1.3
				c-0.8-0.2-1.3,0-1.6,0.5c-0.3,0.6-0.3,1.1,0.1,1.6c0.5,0.5,1.1,0.7,1.8,0.7c0.1,0,0.3-0.1,0.3-0.2c0.2-0.2,0.1-0.3-0.1-0.4
				c-0.2-0.1-0.4-0.2-0.7-0.1c-0.3,0.1-0.7-0.1-0.9-0.4c-0.1-0.1-0.1-0.2,0-0.3c0.1-0.1,0.2,0,0.3,0c0.4,0.1,0.8,0.3,1.2,0.5
				c0.6,0.2,0.5,0.2,0.7-0.4C71.6,260.7,71.6,260.6,71.6,260.6z M73.5,263.3c0.3,0,0.6-0.1,0.7-0.4c0.1-0.3,0-0.6-0.3-0.8
				c-0.3-0.3-0.7-0.5-1-0.8c-0.1-0.1-0.2-0.1-0.1-0.3c0.1-0.1,0.2-0.1,0.3-0.1c0.3,0.1,0.6,0.2,0.8,0.5c0.1,0.2,0.4,0.3,0.6,0.3
				c0.1,0,0.1-0.1,0.1-0.1c0.1-0.2,0-0.4-0.2-0.5c-0.5-0.4-1.1-0.6-1.7-0.7c-0.3,0-0.6,0-0.7,0.4c-0.1,0.3,0,0.6,0.3,0.8
				c0.3,0.3,0.7,0.5,1,0.8c0.1,0.1,0.1,0.1,0.1,0.2c0,0.1-0.1,0.1-0.2,0.1c-0.3,0-0.7-0.1-0.8-0.4c-0.1-0.1-0.2-0.3-0.4-0.3
				c-0.1,0-0.3-0.2-0.4,0c-0.1,0.2-0.1,0.4,0.1,0.5C72.2,263,72.8,263.2,73.5,263.3z M75.7,261.5c-0.3,0-0.6,0.1-0.7,0.4
				c-0.1,0.3,0,0.5,0.2,0.8c0.3,0.3,0.7,0.5,1.1,0.8c0.1,0.1,0.2,0.1,0.1,0.3c-0.1,0.1-0.2,0.1-0.3,0.1c-0.3-0.1-0.6-0.2-0.8-0.5
				c-0.1-0.2-0.4-0.3-0.6-0.3c-0.1,0-0.1,0.1-0.1,0.1c0,0.3,0.1,0.4,0.3,0.6c0.5,0.4,1,0.6,1.6,0.7c0.4,0.1,0.8,0,0.9-0.4
				c0.1-0.4,0-0.6-0.3-0.8c-0.3-0.3-0.7-0.4-0.9-0.7c-0.1-0.1-0.2-0.1-0.2-0.3c0.1-0.1,0.2-0.1,0.4-0.1c0.3,0.1,0.5,0.2,0.7,0.4
				c0.1,0.2,0.2,0.3,0.4,0.3c0.1,0,0.3,0.2,0.4,0c0.1-0.1,0.1-0.3-0.1-0.5C77.1,261.8,76.4,261.6,75.7,261.5z M64,257.4
				c0.3,0,0.2-0.2,0.3-0.3c0.1-0.1,0-0.2-0.1-0.3c-0.3-0.1-0.6-0.1-0.9-0.1c-0.1,0-0.2,0.1-0.2-0.2c0-0.3-0.4-0.3-0.6-0.3
				c-0.2-0.1-0.2,0.1-0.3,0.3c-0.2,0.5-0.4,1.1-0.7,1.6c-0.2,0.5-0.2,0.5,0.3,0.7c0.2,0.1,0.3,0,0.4-0.2c0.1-0.3,0.2-0.5,0.3-0.8
				c0.2-0.6,0.5-0.7,1.1-0.5C63.8,257.3,63.9,257.4,64,257.4z M67.6,261c0.1,0,0.2-0.1,0.2-0.2c0.3-0.8,0.7-1.7,1-2.5
				c0.1-0.3,0-0.4-0.3-0.6c-0.3-0.1-0.4,0-0.6,0.3c-0.3,0.8-0.6,1.5-0.9,2.3c-0.1,0.2-0.3,0.3-0.1,0.5
				C67.2,260.9,67.4,260.9,67.6,261z M61,255.7c-0.1,0-0.2,0-0.3,0.1c-0.2,0.7-0.5,1.3-0.8,1.9c0,0.1,0,0.3,0.2,0.3
				c0.1,0,0.2,0.1,0.3,0.1c0.2,0.1,0.3,0.1,0.3-0.1c0.2-0.6,0.5-1.3,0.8-1.9c0-0.1,0.1-0.2-0.1-0.3C61.3,255.8,61.1,255.7,61,255.7z
				 M61.3,254.8c-0.3,0-0.3,0.2-0.3,0.3s0.4,0.4,0.6,0.4c0.2,0,0.3-0.2,0.3-0.4C61.8,254.9,61.5,254.9,61.3,254.8z"/>
			<path class="st7" d="M56,243.3c0.3-0.6,0.5-1.2,0.8-1.8c0.2-0.4,0.3-0.8,0.4-1.2c0.1-0.2,0.1-0.2,0.3-0.1c0.9,0.4,1.8,0.7,2.7,1
				c0.2,0.1,0.2,0.2,0.1,0.3c-0.6,1.5-1.2,3-1.8,4.5c-0.2,0.5-0.4,1-0.6,1.5c0,0.1-0.1,0.2-0.2,0.1c-0.9-0.4-1.8-0.7-2.6-1.1
				c-0.1,0-0.1-0.1-0.2-0.1c-0.9-1.4-1.8-2.9-2.8-4.4c-0.1-0.1-0.3-0.1-0.3-0.3c-0.3,0.7-0.6,1.4-0.9,2.2c-0.1,0.2-0.2,0.4-0.2,0.6
				c-0.1,0.3-0.3,0.3-0.5,0.2c-0.8-0.3-1.6-0.6-2.5-1c-0.2-0.1-0.3-0.2-0.2-0.4c0.8-2,1.6-4,2.4-6c0.1-0.2,0.1-0.2,0.3-0.1
				c0.9,0.4,1.8,0.7,2.6,1.1c0.3,0.1,0.4,0.5,0.5,0.8c0.8,1.3,1.6,2.5,2.4,3.8C55.8,243,55.9,243.1,56,243.3z"/>
			<path class="st7" d="M44.1,241.8c-1.4-0.1-2.7-0.4-4-1c-1.2-0.5-2.3-1.1-3.2-2c-1.6-1.6-1-3.9,0.4-4.8c0.7-0.5,1.5-0.6,2.4-0.5
				c1.9,0.1,3.6,0.8,5.3,1.8c0.8,0.5,1.6,1.1,2.1,1.9c0.7,1.1,0.6,2.2,0,3.2C46.4,241.5,45.5,241.8,44.1,241.8z M41.3,235.6
				c-0.7,0-1.2,0.3-1.5,0.8c-0.1,0.3-0.3,0.5-0.3,0.8c-0.2,0.6,0,1.1,0.4,1.5c0.7,0.6,1.5,0.9,2.4,1.1c0.6,0.1,1.2-0.2,1.5-0.8
				c0.2-0.3,0.3-0.6,0.4-1c0.1-0.3,0-0.7-0.1-0.9C43.3,236.1,42.3,235.7,41.3,235.6z"/>
			<path class="st8" d="M83.3,250.8c0.3-0.1,0.4,0.2,0.6,0.3c1.2,0.9,2.4,1.9,3.3,3.1c0.3,0.4,0.6,0.9,0.7,1.4
				c0.2,0.8-0.1,1.3-1,1.8c-0.6,0.3-1.2,0.4-1.8,0.5c-1.9,0.2-3.8,0-5.7-0.4c-2.1-0.3-4.2-0.9-6.3-1.4c-2-0.5-3.9-1.2-5.8-1.9
				c-2.2-0.8-4.5-1.7-6.6-2.6c-1.5-0.7-3-1.4-4.5-2.1c-1.5-0.7-3-1.5-4.4-2.4c-1.3-0.8-2.6-1.6-3.8-2.5c-0.4-0.3-0.8-0.6-1.2-1
				c0.3,0,0.5,0.2,0.7,0.3c1.9,1.3,3.8,2.5,5.8,3.5c3,1.6,6,2.9,9.2,4.1c2.5,0.9,5,1.8,7.6,2.5c2.7,0.7,5.5,1.4,8.3,1.6
				c1.3,0.1,2.6,0.2,3.8,0c0.7-0.1,1.4-0.2,2.1-0.6c0.9-0.4,1.2-1.3,0.8-2.2C84.5,252.1,83.9,251.4,83.3,250.8z"/>
			<path class="st7" d="M70.5,247.2c-0.4-0.2-0.8-0.3-1.2-0.5c-1.3-0.5-2.7-1.1-4-1.6c-0.2-0.1-0.3,0-0.4,0.2
				c-0.3,0.6-0.3,0.6,0.4,0.9c1.3,0.5,2.7,1.1,4,1.6c0.1,0.1,0.2,0.1,0.1,0.3c-0.2,0.3-0.3,0.7-0.4,1c-0.1,0.2-0.2,0.3-0.4,0.2
				c-1.4-0.6-2.8-1.1-4.3-1.7c-0.2-0.1-0.3-0.1-0.3,0.1c-0.3,0.7-0.3,0.7,0.4,1c1.5,0.6,3.1,1.2,4.7,1.8c0.3,0.1,0.4,0.2,0.2,0.5
				c-0.2,0.3-0.2,0.6-0.3,0.9c-0.1,0.2-0.2,0.3-0.4,0.2c-2.8-1.1-5.6-2.3-8.5-3.4c-0.2-0.1-0.2-0.2-0.2-0.4c0.8-1.9,1.5-3.8,2.3-5.6
				c0.2-0.5,0.2-0.5,0.8-0.3c2.7,1.1,5.4,2.1,8.1,3.2c0.2,0.1,0.3,0.2,0.2,0.4c-0.2,0.3-0.2,0.6-0.4,0.9
				C70.7,247,70.7,247.2,70.5,247.2z"/>
			<path class="st7" d="M25.5,227.6c-0.2,0.5-0.4,0.9-0.5,1.4c0,0.1-0.1,0-0.2,0c-1.3-0.5-2.6-1.1-4-1.6c-0.4-0.2-0.8-0.3-1.2-0.5
				c-0.1-0.1-0.2-0.1-0.3,0.1c-0.3,0.7-0.3,0.7,0.4,0.9c1.3,0.5,2.6,1,3.9,1.5c0.1,0.1,0.2,0.1,0.1,0.3c-0.2,0.4-0.3,0.8-0.5,1.1
				c-0.1,0.2-0.2,0.1-0.3,0.1c-0.7-0.3-1.4-0.5-2-0.8c-0.8-0.3-1.5-0.6-2.3-0.9c0,0,0,0-0.1,0c-0.5,0-0.3,0.4-0.5,0.6
				c-0.1,0.1-0.1,0.3,0.1,0.4c1.7,0.7,3.4,1.3,5.1,2c0.3,0.1,0.4,0.2,0.3,0.6s-0.3,0.6-0.4,1c-0.1,0.2-0.1,0.2-0.3,0.1
				c-1.9-0.8-3.7-1.5-5.6-2.2c-1-0.4-2-0.8-2.9-1.2c-0.2-0.1-0.3-0.1-0.2-0.4c0.7-1.7,1.4-3.4,2-5.1c0.1-0.3,0.2-0.5,0.3-0.8
				c0.1-0.2,0.2-0.3,0.4-0.2c1.3,0.5,2.5,1,3.8,1.5c1.5,0.6,3,1.2,4.5,1.8C25.3,227.4,25.4,227.4,25.5,227.6z"/>
			<path class="st7" d="M32.2,237.1c-1.2,0-2.2-0.3-3.2-0.7c-1.1-0.4-2.3-1-3.2-1.8c-1.6-1.4-1.7-3.3-0.3-4.9c0.8-0.9,1.9-1,2.9-0.9
				c1.8,0.2,3.5,0.8,5,1.8c0.8,0.5,1.4,1.1,1.8,1.9c0.2,0.5,0.3,1.1,0.1,1.6c-0.1,0.2-0.2,0.1-0.3,0.1c-0.8-0.3-1.6-0.7-2.4-0.9
				c-0.4-0.1-0.5-0.3-0.5-0.7c0.1-0.4-0.2-0.7-0.4-0.9c-0.6-0.5-1.3-0.8-2-0.8c-0.6-0.1-1.3,0.3-1.5,1c-0.1,0.2-0.1,0.4-0.2,0.5
				c-0.3,0.7-0.2,1.3,0.4,1.8c0.7,0.6,1.5,0.9,2.5,0.8c0.3,0,0.6-0.2,0.7-0.5c0.1-0.1,0.1-0.1,0.3-0.1c0.9,0.4,1.7,0.7,2.6,1.1
				c0.2,0.1,0.2,0.2,0.1,0.3c-0.4,0.7-0.9,1.1-1.7,1.2C32.7,237.1,32.4,237.2,32.2,237.1z"/>
			<path class="st7" d="M75.4,249.3c0-0.1-0.1-0.1-0.2-0.1c-1-0.4-1.9-0.8-2.9-1.2c-0.2-0.1-0.3-0.1-0.2-0.4
				c0.2-0.4,0.3-0.8,0.5-1.2c0.1-0.2,0.2-0.1,0.3-0.1c0.8,0.3,1.6,0.6,2.3,0.9c2.2,0.9,4.4,1.8,6.6,2.6c0.3,0.1,0.6,0.1,0.7,0.3
				c0.1,0.2-0.1,0.5-0.2,0.7c-0.1,0.2-0.2,0.5-0.3,0.7c-0.1,0.2-0.1,0.1-0.3,0.1c-1-0.4-1.9-0.8-2.9-1.2c-0.2-0.1-0.3,0-0.3,0.1
				c-0.6,1.4-1.1,2.9-1.7,4.3c-0.1,0.2-0.1,0.2-0.3,0.1c-0.9-0.4-1.9-0.8-2.8-1.1c-0.2-0.1-0.3-0.1-0.2-0.4c0.6-1.4,1.1-2.8,1.7-4.1
				C75.3,249.5,75.4,249.4,75.4,249.3z"/>
			<path class="st7" d="M58.4,255.9c0.4-0.4,0.8-0.9,1.1-1.3c0.2-0.3,1-0.2,1.1,0.1c0,0.1,0,0.1,0,0.2c-0.7,0.8-1.5,1.6-2.2,2.3
				c-0.2,0.2-0.5,0-0.7-0.1c-0.2-0.1-0.3-0.2-0.3-0.4c0-0.5,0-1,0.1-1.5c0-0.1,0-0.2-0.1-0.3c-0.1-0.1-0.2,0.1-0.2,0.2
				c-0.3,0.3-0.6,0.7-0.9,1c-0.2,0.2-0.4,0.3-0.6,0.2c-0.3-0.1-0.6-0.2-0.5-0.6c0-0.9,0-1.9,0-2.8c0-0.4,0-0.4,0.4-0.3
				c0.5,0.2,0.5,0.1,0.5,0.8c0,0.4,0,0.9,0,1.3c0,0.1,0,0.2,0.1,0.2c0.1,0,0.1-0.1,0.2-0.1c0.3-0.4,0.6-0.7,0.9-1.1
				c0.1-0.2,0.3-0.3,0.5-0.2c0.3,0.1,0.6,0.2,0.5,0.6C58.4,254.6,58.3,255.2,58.4,255.9C58.3,255.8,58.4,255.9,58.4,255.9z"/>
			<path class="st7" d="M67,258.7c0.1,0.1,0,0.3,0,0.4c-0.1,0.4-0.2,0.5-0.6,0.3s-0.8-0.3-1.2-0.5c-0.1,0-0.3-0.2-0.3,0
				c-0.1,0.1-0.1,0.3,0.1,0.4c0.3,0.2,0.5,0.4,0.9,0.3c0.2,0,0.3,0,0.5,0c0.1,0.1,0.4,0.1,0.3,0.3c0,0.2-0.2,0.3-0.4,0.3
				c-0.3,0.1-0.7,0-1-0.1c-0.3-0.1-0.6-0.2-0.8-0.4c-0.5-0.4-0.5-1-0.3-1.5c0.3-0.6,0.8-0.9,1.4-0.7c0.6,0.1,1.1,0.3,1.4,0.9
				C66.9,258.4,66.9,258.6,67,258.7z M65.4,257.9c-0.2,0-0.4,0.1-0.4,0.3c-0.1,0.2,0.2,0.2,0.3,0.3c0.1,0.1,0.3,0.1,0.4,0.2
				c0.1,0,0.3,0.2,0.3,0.1c0.1-0.1,0-0.3-0.1-0.5C65.9,258,65.7,258,65.4,257.9z"/>
			<path class="st7" d="M71.6,260.6c0,0,0,0.1,0,0.2c-0.2,0.6-0.2,0.6-0.7,0.4c-0.4-0.2-0.8-0.3-1.2-0.5c-0.1,0-0.2-0.2-0.3,0
				c-0.1,0.1,0,0.2,0,0.3c0.1,0.3,0.6,0.5,0.9,0.4c0.3-0.1,0.5,0,0.7,0.1c0.2,0.1,0.3,0.2,0.1,0.4c-0.1,0.1-0.2,0.2-0.3,0.2
				c-0.7,0-1.3-0.2-1.8-0.7c-0.4-0.4-0.4-1-0.1-1.6c0.3-0.6,0.8-0.7,1.6-0.5C71,259.5,71.6,260,71.6,260.6z M70.1,259.7
				c-0.1,0-0.2,0-0.2,0.1c-0.1,0-0.2,0.1-0.2,0.3s0.2,0.1,0.2,0.2c0.2,0.1,0.4,0.2,0.6,0.2c0.1,0,0.2,0.2,0.3,0
				c0.1-0.1,0.1-0.2,0-0.4C70.6,259.9,70.4,259.8,70.1,259.7z"/>
			<path class="st7" d="M73.5,263.3c-0.7-0.1-1.4-0.3-1.9-0.8c-0.2-0.2-0.2-0.4-0.1-0.5c0.1-0.2,0.3,0,0.4,0
				c0.2,0.1,0.3,0.2,0.4,0.3c0.2,0.3,0.5,0.4,0.8,0.4c0.1,0,0.2,0,0.2-0.1c0-0.1,0-0.1-0.1-0.2c-0.3-0.3-0.7-0.5-1-0.8
				c-0.3-0.2-0.4-0.5-0.3-0.8c0.1-0.3,0.4-0.4,0.7-0.4c0.6,0.1,1.2,0.3,1.7,0.7c0.2,0.1,0.2,0.3,0.2,0.5c0,0.1,0,0.2-0.1,0.1
				c-0.2,0-0.5-0.1-0.6-0.3c-0.2-0.3-0.4-0.4-0.8-0.5c-0.1,0-0.2,0-0.3,0.1c-0.1,0.1,0,0.2,0.1,0.3c0.3,0.3,0.7,0.5,1,0.8
				c0.3,0.2,0.4,0.5,0.3,0.8C74.1,263.2,73.8,263.3,73.5,263.3z"/>
			<path class="st7" d="M75.7,261.5c0.7,0.1,1.3,0.3,1.8,0.9c0.1,0.1,0.1,0.3,0.1,0.5c-0.1,0.2-0.3,0-0.4,0c-0.2,0-0.3-0.1-0.4-0.3
				c-0.2-0.2-0.4-0.4-0.7-0.4c-0.1,0-0.3,0-0.4,0.1c-0.1,0.1,0.1,0.2,0.2,0.3c0.3,0.3,0.7,0.4,0.9,0.7c0.2,0.2,0.4,0.5,0.3,0.8
				c-0.1,0.3-0.5,0.4-0.9,0.4c-0.6-0.1-1.1-0.3-1.6-0.7c-0.2-0.1-0.3-0.4-0.3-0.6c0-0.1,0-0.1,0.1-0.1c0.2,0,0.5,0.1,0.6,0.3
				c0.2,0.3,0.5,0.4,0.8,0.5c0.1,0,0.2,0,0.3-0.1c0.1-0.1,0-0.2-0.1-0.3c-0.3-0.3-0.7-0.5-1.1-0.8c-0.2-0.2-0.3-0.5-0.2-0.8
				C75.1,261.6,75.4,261.5,75.7,261.5z"/>
			<path class="st7" d="M64,257.4c-0.1,0-0.2-0.1-0.3-0.1c-0.5-0.2-0.8-0.1-1.1,0.5c-0.1,0.3-0.3,0.5-0.3,0.8
				c-0.1,0.2-0.2,0.3-0.4,0.2c-0.5-0.2-0.5-0.2-0.3-0.7c0.2-0.5,0.4-1.1,0.7-1.6c0-0.1,0.1-0.3,0.3-0.3c0.2,0.1,0.6,0.1,0.6,0.3
				c0,0.2,0.1,0.2,0.2,0.2c0.3,0,0.6,0,0.9,0.1c0.1,0.1,0.2,0.1,0.1,0.3C64.2,257.2,64.3,257.4,64,257.4z"/>
			<path class="st7" d="M67.6,261c-0.2-0.1-0.4-0.1-0.5-0.2c-0.2-0.2,0-0.3,0.1-0.5c0.3-0.8,0.6-1.5,0.9-2.3
				c0.1-0.3,0.2-0.4,0.6-0.3c0.3,0.1,0.4,0.2,0.3,0.6c-0.4,0.8-0.7,1.7-1,2.5C67.7,260.9,67.7,261,67.6,261z"/>
			<path class="st7" d="M61,255.7c0.1,0.1,0.3,0.1,0.5,0.2c0.1,0.1,0.1,0.2,0.1,0.3c-0.3,0.6-0.5,1.3-0.8,1.9
				c-0.1,0.2-0.2,0.2-0.3,0.1c-0.1,0-0.2-0.1-0.3-0.1c-0.2,0-0.2-0.1-0.2-0.3c0.3-0.6,0.5-1.3,0.8-1.9
				C60.8,255.6,60.9,255.7,61,255.7z"/>
			<path class="st7" d="M61.3,254.8c0.2,0.1,0.5,0.1,0.6,0.4c0,0.1-0.1,0.3-0.3,0.4c-0.2,0-0.6-0.2-0.6-0.4
				C61,255,61,254.8,61.3,254.8z"/>
			<path class="st6" d="M41.3,235.6c1,0.1,2.1,0.5,2.8,1.5c0.2,0.3,0.2,0.6,0.1,0.9c-0.1,0.4-0.2,0.7-0.4,1
				c-0.3,0.6-0.9,0.8-1.5,0.8c-0.9-0.1-1.7-0.4-2.4-1.1c-0.4-0.4-0.6-0.9-0.4-1.5c0.1-0.3,0.2-0.6,0.3-0.8
				C40,235.9,40.5,235.6,41.3,235.6z"/>
			<path class="st6" d="M65.4,257.9c0.2,0,0.5,0.1,0.6,0.3c0.1,0.1,0.2,0.3,0.1,0.5s-0.2,0-0.3-0.1c-0.2,0-0.3-0.1-0.4-0.2
				c-0.1-0.1-0.4-0.1-0.3-0.3C65.1,258,65.3,258,65.4,257.9z"/>
			<path class="st6" d="M70.1,259.7c0.3,0.1,0.5,0.1,0.7,0.4c0.1,0.1,0.1,0.3,0,0.4c-0.1,0.1-0.2,0-0.3,0c-0.2-0.1-0.4-0.1-0.6-0.2
				c-0.1,0-0.2,0-0.2-0.2c0-0.1,0.1-0.2,0.2-0.3C69.9,259.8,70,259.8,70.1,259.7z"/>
		</g>
	</g>
</g>
</svg>
